/* XPM */
static const char *collectible[] = {
/* columns rows colors chars-per-pixel */
"32 32 48 1 ",
"  c #010101",
". c #020202",
"X c #040404",
"o c gray2",
"O c gray3",
"+ c black",
"@ c #060606",
"# c #070707",
"$ c gray1",
"% c #090909",
"& c gray6",
"* c #012A9D",
"= c #DCF4FB",
"- c #CAF2FE",
"; c #B3EDFE",
": c #BBEBFE",
"> c #A5E8FE",
", c #93E3FE",
"< c #8FDEFF",
"1 c #75DAFE",
"2 c #84E0FF",
"3 c #62D2FF",
"4 c #81CDFF",
"5 c #95DCF1",
"6 c #57C8FF",
"7 c #3DC0FF",
"8 c #34B7FF",
"9 c #0FA4FF",
"0 c #5AB9FF",
"q c #B9E4FF",
"w c #8FD8FF",
"e c #76BBFF",
"r c #21AFFE",
"t c #ADD7FF",
"y c #91CCFD",
"u c #0F9BFF",
"i c #0083FF",
"p c #0889FF",
"a c #0092FF",
"s c #63B1FF",
"d c #5BA5FF",
"f c #117AFE",
"g c #313131",
"h c #0B0B0B",
"j c #131313",
"k c gray5",
"l c #0C0C0C",
"z c gray4",
/* pixels */
" .XooX. O+.+@+ +#o.   ++ ++++ ..",
"$$$..$$$+ .%X.+XX.++.$.   +++.$o",
"oX.++.Xo+o+&+o+O +++$ooX. ++ $@#",
"X$.  .$XXX+**********ooX$.++ X#%",
"+ .$$. +***==========***$. + X@O",
"++.XX.+*======----------*....$$X",
"   .. *=------;;;;;;:;:;;*$$$.++",
"$.+++*;;;;;;>>>>>>>>>>;;;;*X$ ++",
"oo##*:>>,,,,,,,,,>>>>>>>,<<*    ",
"+ #*;:,111222,,,,,<221133343*   ",
"++*5>>;1112211133333667774831*  ",
"o*5,,,,:3333666777777788490331* ",
"O*22222,=-qw47777880444eer8333* ",
"$*,2221>>;----:qtyy099uier7333* ",
".*;,211;,,>;;>>>e9999uppu77332* ",
"#*=;21,,,,,,,,,,e9999aaaa07315* ",
"$.*=>2>,,2212,,,e999aaaaa9735* .",
"XX$*=;22131112,,e99uaaaauu05*  .",
"oX$.*->13311312,e9uuuuuuu90*+  .",
".... *4e4w<,1112y99usesddd*++  .",
"++ .$$*r99r044w>tsedifffp* ++  .",
"++ $Xoo*rr878r9rdffffffa*  ++  .",
" .$oooXX*r7777rrdffffiu*.  ++  .",
"$Xo@@X$.g*763678dippp9*O.  ++  .",
".+.hjjO+X+*33367daaa9*XX        ",
"k#..#%#.o@#*3336duu9*Xoo        ",
"lO$+ $XX %z+*113s99*Xoo@        ",
"+ X@o$  +O%+o*1309*$$XXX        ",
"++o#o.++@o#.+@*10*   ...        ",
"$$$ ++++o+X#+++**+++++++        ",
"@$++++ . +XO  %%                ",
"++++$oX$.+oX+$#+........        "
};
