/* XPM */
static const char *exit_ship[] = {
/* columns rows colors chars-per-pixel */
"32 32 120 2 ",
"   c #000001",
".  c #090504",
"X  c #03060A",
"o  c #05080D",
"O  c #080A0F",
"+  c #040012",
"@  c #060B12",
"#  c #090D13",
"$  c #0B0E18",
"%  c #0D121C",
"&  c #10151D",
"*  c #0F1620",
"=  c #0F1827",
"-  c #111623",
";  c #131C2A",
":  c #0E1E33",
">  c #131D32",
",  c #162334",
"<  c #1A2434",
"1  c #14263C",
"2  c #182539",
"3  c #14283A",
"4  c #1C2B3B",
"5  c #0F2845",
"6  c #152D44",
"7  c #182B43",
"8  c #172F49",
"9  c #1C2F4B",
"0  c #1B3146",
"q  c #1A354B",
"w  c #163A48",
"e  c #1C394E",
"r  c #1F3C54",
"t  c #212D46",
"y  c #233345",
"u  c #23354C",
"i  c #243C4F",
"p  c #223B53",
"a  c #283C52",
"s  c #203F5B",
"d  c #2A3F5B",
"f  c #29366F",
"g  c #294256",
"h  c #27405C",
"j  c #2A435A",
"k  c #30445C",
"l  c #2F4064",
"z  c #2C4B65",
"x  c #2D4A6A",
"c  c #344660",
"v  c #354A65",
"b  c #394A62",
"n  c #344C6C",
"m  c #3B4B69",
"M  c #345463",
"N  c #31506C",
"B  c #38536E",
"V  c #375B6C",
"C  c #375371",
"Z  c #3B5473",
"A  c #38527A",
"S  c #3A5A79",
"D  c #3A6079",
"F  c #257179",
"G  c #466358",
"H  c #435B77",
"J  c #415879",
"K  c #43677B",
"L  c #426B7C",
"P  c #4D787E",
"I  c #567872",
"U  c #38B764",
"Y  c #5E807A",
"T  c #A7F070",
"R  c #425F80",
"E  c #426080",
"W  c #496583",
"Q  c #4B6C85",
"!  c #4C678C",
"~  c #456C8C",
"^  c #4C6C8F",
"/  c #51638E",
"(  c #4C7483",
")  c #527A83",
"_  c #527A8F",
"`  c #546490",
"'  c #596992",
"]  c #546D9B",
"[  c #596B9C",
"{  c #4F7190",
"}  c #4D759B",
"|  c #507197",
" . c #57719B",
".. c #5B759A",
"X. c #5C7D9D",
"o. c #5578A0",
"O. c #5B7DA5",
"+. c #5C77AB",
"@. c #5E7EAA",
"#. c #6178A0",
"$. c #3B5DC9",
"%. c #5E8485",
"&. c #5B869F",
"*. c #63878C",
"=. c #638792",
"-. c #669592",
";. c #699093",
":. c #6C9192",
">. c #669995",
",. c #5581A2",
"<. c #5A82A1",
"1. c #5A80A9",
"2. c #5D82B0",
"3. c #6186A4",
"4. c #6087AF",
"5. c #6189B6",
"6. c #41A6F6",
"7. c #73EFF7",
"8. c #F4F4F4",
"9. c #F4F4F4",
/* pixels */
"                        X X X X X X @ @                         ",
"                                          @ X                   ",
"                      , a v H ! | ^ W Z 4   8.8.8.8.8.8.8.8.8.8.",
"                @ 4 g n Z B C N N B R o.O.8.T T T U T T U U 8.  ",
"            o ; y j j u 7 5 q p p q 0 8 8.T T T U T T U U 8.    ",
"          X , y u 1 8 z D K M g i i j 8.T T T T T T U U 8.      ",
"        X ; 4 3 q ~ <.&._ ) ( L V e 8.T T T U T T U U 8.        ",
"        % , , B X.,.K N M ) *.;.:.8.T T T U T T U U 8.  @       ",
"      o ; 0 ^ 3.Q r w P >.-.Y I 8.T T T T T T U U T 8.8.        ",
"    X % 1 } 4.M 6 M =.%.G 8.8.8.8.8.8.8.8.T T U U T 8.F 8.o     ",
"    # + 8.8.8.8.8.8.8.8.8.F F F F U U U U 8.T U U T 8.F 8.#     ",
"    8.8.U T U T U T U 8.F F F U U U U U U U 8.U U T 8.F 8.@     ",
"  8.T T T T T T T T 8.F F U U U U F U F F U U 8.U T 8.8.d   o   ",
"  8.U U U U U U U U U U U U U U U U U U U U U U 8.T 8.2.n   @   ",
"X 8.8.8.8.F F F 6.7.7.7.7.6.F F F F F F F F U U U 8.8.5.d $ @   ",
"    b @.x 8.F 6.7.7.7.7.6.F F F F F F F F F F U U 8.Z 1.9 = o   ",
"    Z ] h 8.f $.6.6.6.6.$.f f f f f f f f f f F F 8.~ } > ; X   ",
"X 8.8.8.8.f f f $.6.6.6.6.$.f f f f f f f f F F F 8.8.S > = X   ",
"X 8.F F F F F F F F F F F F F F F F F F F F F F 8.U 8.7 2 %     ",
"  8.U U U U U U U U 8.f f F F F F f F f f F F 8.F U 8.8., #     ",
"    8.8.F U F U F U F 8.f f f F F F F F F F 8.F F U 8.f 8.o     ",
"    ; J 8.8.8.8.8.8.8.8.8.f f f f F F F F 8.U F F U 8.f 8.      ",
"      k b , t n  .m q p e 8.8.8.8.8.8.8.8.U U F F U 8.f 8.      ",
"      , c y 2 a ^ #.d s p p p p 8.U U U U U U F F U 8.8.X       ",
"    X # y a 2 4 p { ..m p p p p a 8.U U U F U U F F 8.X         ",
"      X % 4 y 2 2 0 ! X.W m u u 7 9 8.U U U F U U F F 8.        ",
"        X # 4 4 ; > 4 E  .+.] ' ` / ' 8.U U U U U U F F 8.      ",
"          o % ; ; ; ; t l A ] [ [ [ ! Z 8.U U U F U U F F 8.    ",
"          X X O @ % - - - ; > : 1 7 : . O 8.U U U F U U F F 8.  ",
"                X o o $ % $ # & % O o @ o X 8.8.8.8.8.8.8.8.8.8.",
"                X X X   X X o X                                 ",
"                    X X X                                       "
};
