/* XPM */
static const char *ship_left[] = {
/* columns rows colors chars-per-pixel */
"32 32 33 1 ",
"  c #010101",
". c #020202",
"X c #040404",
"o c gray2",
"O c gray3",
"+ c black",
"@ c #060606",
"# c #070707",
"$ c gray1",
"% c #090909",
"& c gray6",
"* c #F4F4F4",
"= c #A7F070",
"- c #38B764",
"; c gray4",
": c #232323",
"> c #111111",
", c #101010",
"< c #181818",
"1 c #257179",
"2 c #41A6F6",
"3 c #73EFF7",
"4 c #29366F",
"5 c #3B5DC9",
"6 c gray13",
"7 c gray9",
"8 c #0B0B0B",
"9 c #313131",
"0 c gray5",
"q c #131313",
"w c #0C0C0C",
"e c #222222",
"r c #202020",
/* pixels */
" .XooX. O+.+@+ +#o.   ++ ++++ ..",
"$$$..$$$+ .%X.+XX.++.$.   +++.$o",
"oX.++.Xo+o+&+o+O +++$o**********",
"X$.  .$XXX+o+++@ +++$*===-==--*%",
"+ .$$. +#+. &@O$X.++*===-==--*@O",
"++.XX.++$+;;:>,.@$ *======--*$$X",
"   ..   .+@&<,%.o$*===-==--*$.++",
"$.++++.$o@+;+o+ X*===-==--*X$ ++",
"oo##.+ %ooX.+++.*======--=**    ",
"+ #;@++$$XX.+********==--=*1*   ",
"++X#*********1111----*=--=*1*   ",
"o.**-=-=-=-*111-------*--=*1*   ",
"O*========*11----1-11--*-=**    ",
"$*----------------------*=*     ",
".****11123333211111111---**     ",
"#.+..*12333321111111111--*      ",
"$...$*4522225444444444411* ++  .",
"X****44452222544444444111**++  .",
"o*1111111111111111111111*-*++  .",
".*--------*441111414411*1-**+  .",
"++**1-1-1-1*4441111111*11-*4*  .",
"++ $*********44441111*-11-*4*  .",
" .$oooXX678@#********--11-*4*  .",
"$Xo@@X$.960..o$+*------11-**+  .",
".+.8qqO+X+$% +oo+*---1--11*     ",
"0#..#%#.o@# +8w+  *---1--11*    ",
"wO$+ $XX %;+X6e ..$*------11*   ",
"+ X@o$  +O%+oreo...$*---1--11*  ",
"++o#o.++@o#.+@O+++   *---1--11* ",
"$$$ ++++o+X#++++++++++**********",
"@$++++ . +XO  %%                ",
"++++$oX$.+oX+$#+........        "
};
