/* XPM */
static const char *ship_right[] = {
/* columns rows colors chars-per-pixel */
"32 32 28 1 ",
"  c #010101",
". c #020202",
"X c #040404",
"o c gray2",
"O c gray3",
"+ c black",
"@ c #060606",
"# c #070707",
"$ c gray1",
"% c #090909",
"& c #F4F4F4",
"* c gray6",
"= c #257179",
"- c #38B764",
"; c #111111",
": c #101010",
"> c #29366F",
", c #3B5DC9",
"< c #41A6F6",
"1 c #73EFF7",
"2 c #A7F070",
"3 c #0B0B0B",
"4 c #131313",
"5 c gray5",
"6 c #0C0C0C",
"7 c gray13",
"8 c #222222",
"9 c #202020",
/* pixels */
" .XooX. O+.+@+ +#o.   ++ ++++ ..",
"$$$..$$$+ .%X.+XX.++.$.   +++.$o",
"&&&&&&&&&&+*+o+O +++$ooX. ++ $@#",
"X&==--=---&o+++@ +++$ooX$.++ X#%",
"+ &==--=---&*@O$X.++.$$.$. + X@O",
"++.&==------&;:.@$  .. +.....$$X",
"   .&==--=---&%.o$  ...  .$$$.++",
"$.+++&==--=---& X.++.$$.+.$X$ ++",
"oo##&&-==------&X+++++++        ",
"+ #&>&-==--&&&&&&&&++ .$        ",
"++X&>&-==-&====>>>>&&&&&&&&&    ",
"o.+&>&-==&=======>>>&=-=-=-=&&  ",
"O$+ &&-=&==>>=>====>>&--------& ",
"$ $OO&-&======================& ",
". $O%&&===>>>>>>>>,<<<<,>>>&&&& ",
"#.+..+&==>>>>>>>>>>,<<<<,>&     ",
"$...$o&--==========<1111<=&++  .",
"XX$..&&---========<1111<===&&&&.",
"oX$. &2&----------------------&.",
"....&&2-&--==-=----==&22222222&.",
"++ &=&2--&-------===&-2-2-2-&& .",
"++ &=&2--2&----====&&&&&&&&&+  .",
" .$&=&2--22&&&&&&&&+ $Xo.  ++  .",
"$Xo@&&2--222222&+++ $o#O.  ++  .",
".+.34&--22-222&o++ ..$XX        ",
"5#..&--22-222&6+  .$XXoo        ",
"6O$&--222222&78 ..$$Xoo@        ",
"+ &--22-222&o98o...$$XXX        ",
"+&--22-222&.+@O+++   ...        ",
"&&&&&&&&&&X#++++++++++++        ",
"@$++++ . +XO  %%                ",
"++++$oX$.+oX+$#+........        "
};
