/* XPM */
static const char *ship_up[] = {
/* columns rows colors chars-per-pixel */
"32 32 23 1 ",
"  c #010101",
". c #020202",
"X c #040404",
"o c gray2",
"O c gray3",
"+ c black",
"@ c #060606",
"# c #070707",
"$ c gray1",
"% c #090909",
"& c #F4F4F4",
"* c #38B764",
"= c #257179",
"- c #A7F070",
"; c #29366F",
": c #3B5DC9",
"> c #41A6F6",
", c #73EFF7",
"< c gray4",
"1 c #0C0C0C",
"2 c gray5",
"3 c #202020",
"4 c #222222",
/* pixels */
" .XooX. O+.+@+ +#o.   ++ ++++ ..",
"$$$..$$$+ .%&&&XX&&&.$.   +++.$o",
"oX.++.Xo+o+&*=&O &*-&ooX. ++ $@#",
"X$.  .$XXX+&*=&@ &*-&ooX$.++ X#%",
"+ .$$. +#+&=*=&$X&*-*&$.$. + X@O",
"++.XX.++$+&**=;&&=*--& +.....$$X",
"   ..   .+&=*=;;==*-*&.  .$$$.++",
"$.++++.$o@&**=;:>=*--&$.+.$X$ ++",
"oo##.+ %oo&=*=:>,>*-*&++        ",
"+ #<@++$$X&**=>>,,*--&.$        ",
"++X#X++X $&=&=>>,,*&*&$o        ",
"o.++++X1.X&&;=>>,,*=&&..        ",
"O$+ ++o1X@&;;=>:>,*==& +        ",
"$ $OOX.Xo&;;==:;=>**==&+        ",
". $O%X++$&;;==;;==**==&+        ",
"#.+..++. &;===;;==***=&         ",
"$...$o#%&&;===;;==***=&&.  ++  .",
"XX$..$o&*&==;=;;==*=**&-&  ++  .",
"oX$. .&**&====;;==****&--& ++  .",
".... &***&==;=;;==*=**&---&++  .",
"++ .&****&==;=;;==*=**&----&+  .",
"++ &***=**&===;;==***&--*---&  .",
" .&***=****&===;=***&----*---& .",
"$X&*****====&===***&****-----& .",
".+&*=**======&==**&******--*-&  ",
"2#&=**==******&&&&------**--*&  ",
"1O&**==&&&&&&&& .&&&&&&&&**--&  ",
"+ &*==& &;;;&34o...&===& &**-&  ",
"++&==&++@&&&+@O+++  &&&.  &**&  ",
"$$&=&+++o+X#++++++++++++   &*&  ",
"@$&&++ . +XO  %%            &&  ",
"++&+$oX$.+oX+$#+........     &  "
};
