/* XPM */
static const char *ship_down[] = {
/* columns rows colors chars-per-pixel */
"32 32 26 1 ",
"  c #010101",
". c #020202",
"X c #F4F4F4",
"o c gray2",
"O c #040404",
"+ c gray3",
"@ c black",
"# c #060606",
"$ c #070707",
"% c gray1",
"& c #090909",
"* c #38B764",
"= c gray6",
"- c #257179",
"; c #A7F070",
": c #29366F",
"> c #41A6F6",
", c #3B5DC9",
"< c #73EFF7",
"1 c gray13",
"2 c gray9",
"3 c #313131",
"4 c #0B0B0B",
"5 c #131313",
"6 c gray5",
"7 c #0C0C0C",
/* pixels */
" .XooO. +@.@#@ @$o.   @@ @@@@X..",
"%%XX.%%%@ .&O.@OO.@@.%.   @@XX%o",
"oOX*X.Oo@o@=@o@+ @@@%ooO. @X-X#$",
"O%X**X%OOXXX@@@# @@@XXXO%.X--X$&",
"@ X;**X@X---X#+%O.@X:::X%X--*X#+",
"@@X;;**XXXXXXXX.#XXXXXXXX--**X%O",
"  X*;;**;;;;;;XXXX******--**-X@@",
"%.X;*;;******X**--X------**-*X@@",
"ooX;;;;;****X***---X----*****X  ",
"@ X;;;*;;;;X***-:---X****-***X  ",
"@@OX;;;*;;X***--::---X**-***X   ",
"o.@@X;;;;X**-*--::-:--X****X    ",
"+%@ @X;;;X**-*--::-:--X***X     ",
"% %++OX;;X****--::----X**X      ",
". %+&O@X;X**-*--::-:--X*X       ",
"$.@..@@.XX-***--::---:XX        ",
"%...%o$&.X-***--::---:XO.  @@  .",
"OO%..%oo.X--**--::--::X%.  @@  .",
"oO%. ...OX--**>-:,--::X..  @@  .",
".... ... %X--*<>,>-::X@@.  @@  .",
"@@ .%%OO@@XX-*<<>>-:XX@@.  @@  .",
"@@ %Oooo+oX*X*<<>>-X-X  .  @@  .",
" .%oooOO12X;;*<<>>-**XOo.  @@  .",
"%Oo##O%.31X*;*><>,-*-X$+.  @@  .",
".@.455+@O@X;;*->,:-**XOO        ",
"6$..$&$.o#X*;*--::-*-Xoo        ",
"7+%@ %OO &X;;*-XX:-**Xo#        ",
"@ O#o%  @+X*;*Xo.X-*-XOO        ",
"@@o$o.@@#o$X;*X@@X-*X...        ",
"%%% @@@@o@OX;*X@@X-*X@@@        ",
"#%@@@@ . @O+XXX& XXX            ",
"@@@@%oO%.@oO@%$@........        "
};
