/* XPM */
static const char *wall[] = {
/* columns rows colors chars-per-pixel */
"32 32 23 1 ",
"  c #010101",
". c #020202",
"X c #040404",
"o c gray2",
"O c gray3",
"+ c black",
"@ c #060606",
"# c #070707",
"$ c gray1",
"% c #090909",
"& c gray6",
"* c #5F5F5F",
"= c gray4",
"- c #232323",
"; c #111111",
": c #101010",
"> c #717171",
", c #181818",
"< c gray49",
"1 c #0C0C0C",
"2 c #0B0B0B",
"3 c #131313",
"4 c gray5",
/* pixels */
" .XooX. O+.+@+ +#o.   ++ ++++ ..",
"$$$..$$$+ .%X.+XX.++.$.   +++.$o",
"oX.++.Xo+o+&+o+O +++$ooX. ++ $@#",
"X$.  .$XXX+o+++@ +++$ooX$.++ X#%",
"+ .$$. +#+. &@O$X.++.$*.$. + X@O",
"++.XX.++$+==-;:.@$  **>*.....$$X",
"   ..   .+@&,:%.o$**>>>* .$$$.++",
"$.++++.$o@+=+o+ **>>>>>>*.$X$ ++",
"oo##.+ %ooX.+***>>>><>>>*       ",
"+ #=@++$$X***>><<>><<<>>>*      ",
"++X#X++X**>>>><<>>><<>>>>*      ",
"o.++++X1*>>><<<<><<<<>>>>>*     ",
"O$+ ++o*>>><<<<><<<<>>>>>>*     ",
"$ $OOX.*>><<<<<<<<<<>>>>>>*     ",
". $O%X*>>><<<<<<<<<>>><>>**     ",
"#.+..+*>><<<<<<<<<>>><<>>**     ",
"$...$*>>><<<<>><<<>>><>>>**++  .",
"XX$..*>>><<<>>>>>>>><>>>*<*++  .",
"oX$. *>>>>>>>>>>>>>>>>>>*<*++  .",
".... .*>>><<>>>>>>>>>>>*<<*++  .",
"++ .$$*>><<>>><>>>>>****<<*++  .",
"++ $Xo*>><<>><<>>>*******<*++  .",
" .$oooX*>>>>><<>>>*******<*++  .",
"$Xo@@X$*>>>>>>>>>**********++  .",
".+.233O*>>>>>>>>***********     ",
"4#..#%#.*>>>>>*************     ",
"1O$+ $XX***>>************       ",
"+ X@o$  +O%************X        ",
"++o#o.++@o#.+@O+**** ...        ",
"$$$ ++++o+X#++++++++++++        ",
"@$++++ . +XO  %%                ",
"++++$oX$.+oX+$#+........        "
};
